solid 
 facet normal -1.511831e-14  1.000000e+00  0.000000e+00
   outer loop
     vertex  0.000000e+00  8.000000e+00  4.500000e+00
     vertex -2.467437e+00  8.000000e+00  4.500000e+00
     vertex -2.467437e+00  8.000000e+00  6.500000e+00
   endloop
 endfacet
 facet normal -4.995488e-15  1.000000e+00  1.248872e-14
   outer loop
     vertex  5.000000e+00  8.000000e+00  6.500000e+00
     vertex  0.000000e+00  8.000000e+00  4.500000e+00
     vertex -2.467437e+00  8.000000e+00  6.500000e+00
   endloop
 endfacet
 facet normal  0.000000e+00  1.000000e+00  0.000000e+00
   outer loop
     vertex  5.000000e+00  8.000000e+00  1.000000e+00
     vertex  0.000000e+00  8.000000e+00  1.000000e+00
     vertex  0.000000e+00  8.000000e+00  4.500000e+00
   endloop
 endfacet
 facet normal  0.000000e+00  1.000000e+00 -0.000000e+00
   outer loop
     vertex  5.000000e+00  8.000000e+00  1.000000e+00
     vertex  0.000000e+00  8.000000e+00  4.500000e+00
     vertex  5.000000e+00  8.000000e+00  6.500000e+00
   endloop
 endfacet
 facet normal  0.000000e+00 -0.000000e+00 -1.000000e+00
   outer loop
     vertex -4.510188e+00  5.114986e+00  4.500000e+00
     vertex  0.000000e+00  0.000000e+00  4.500000e+00
     vertex -5.008773e+00  4.610759e+00  4.500000e+00
   endloop
 endfacet
 facet normal  0.000000e+00  0.000000e+00 -1.000000e+00
   outer loop
     vertex -5.534110e+00  4.134469e+00  4.500000e+00
     vertex -5.008773e+00  4.610759e+00  4.500000e+00
     vertex  0.000000e+00  0.000000e+00  4.500000e+00
   endloop
 endfacet
 facet normal  0.000000e+00 -0.000000e+00 -1.000000e+00
   outer loop
     vertex -4.039839e+00  5.645649e+00  4.500000e+00
     vertex  0.000000e+00  0.000000e+00  4.500000e+00
     vertex -4.510188e+00  5.114986e+00  4.500000e+00
   endloop
 endfacet
 facet normal  0.000000e+00  0.000000e+00 -1.000000e+00
   outer loop
     vertex -6.084635e+00  3.687532e+00  4.500000e+00
     vertex -5.534110e+00  4.134469e+00  4.500000e+00
     vertex  0.000000e+00  0.000000e+00  4.500000e+00
   endloop
 endfacet
 facet normal  0.000000e+00  0.000000e+00 -1.000000e+00
   outer loop
     vertex -3.599124e+00  6.201168e+00  4.500000e+00
     vertex  0.000000e+00  8.000000e+00  4.500000e+00
     vertex  0.000000e+00  0.000000e+00  4.500000e+00
   endloop
 endfacet
 facet normal  0.000000e+00 -0.000000e+00 -1.000000e+00
   outer loop
     vertex -3.599124e+00  6.201168e+00  4.500000e+00
     vertex  0.000000e+00  0.000000e+00  4.500000e+00
     vertex -4.039839e+00  5.645649e+00  4.500000e+00
   endloop
 endfacet
 facet normal  0.000000e+00  0.000000e+00 -1.000000e+00
   outer loop
     vertex -6.658712e+00  3.271277e+00  4.500000e+00
     vertex -6.084635e+00  3.687532e+00  4.500000e+00
     vertex  0.000000e+00  0.000000e+00  4.500000e+00
   endloop
 endfacet
 facet normal  0.000000e+00 -0.000000e+00 -1.000000e+00
   outer loop
     vertex -3.189355e+00  6.779892e+00  4.500000e+00
     vertex  0.000000e+00  8.000000e+00  4.500000e+00
     vertex -3.599124e+00  6.201168e+00  4.500000e+00
   endloop
 endfacet
 facet normal  0.000000e+00  0.000000e+00 -1.000000e+00
   outer loop
     vertex -7.254631e+00  2.886945e+00  4.500000e+00
     vertex -6.658712e+00  3.271277e+00  4.500000e+00
     vertex  0.000000e+00  0.000000e+00  4.500000e+00
   endloop
 endfacet
 facet normal  0.000000e+00 -0.000000e+00 -1.000000e+00
   outer loop
     vertex -2.811752e+00  7.380098e+00  4.500000e+00
     vertex  0.000000e+00  8.000000e+00  4.500000e+00
     vertex -3.189355e+00  6.779892e+00  4.500000e+00
   endloop
 endfacet
 facet normal  0.000000e+00  0.000000e+00 -1.000000e+00
   outer loop
     vertex -7.870620e+00  2.535677e+00  4.500000e+00
     vertex -7.254631e+00  2.886945e+00  4.500000e+00
     vertex  0.000000e+00  0.000000e+00  4.500000e+00
   endloop
 endfacet
 facet normal  0.000000e+00 -0.000000e+00 -1.000000e+00
   outer loop
     vertex -2.467437e+00  8.000000e+00  4.500000e+00
     vertex  0.000000e+00  8.000000e+00  4.500000e+00
     vertex -2.811752e+00  7.380098e+00  4.500000e+00
   endloop
 endfacet
 facet normal  0.000000e+00  0.000000e+00 -1.000000e+00
   outer loop
     vertex -8.504846e+00  2.218519e+00  4.500000e+00
     vertex -7.870620e+00  2.535677e+00  4.500000e+00
     vertex  0.000000e+00  0.000000e+00  4.500000e+00
   endloop
 endfacet
 facet normal  0.000000e+00  0.000000e+00 -1.000000e+00
   outer loop
     vertex -9.155422e+00  1.936416e+00  4.500000e+00
     vertex -8.504846e+00  2.218519e+00  4.500000e+00
     vertex  0.000000e+00  0.000000e+00  4.500000e+00
   endloop
 endfacet
 facet normal  0.000000e+00  0.000000e+00 -1.000000e+00
   outer loop
     vertex -9.820412e+00  1.690205e+00  4.500000e+00
     vertex -9.155422e+00  1.936416e+00  4.500000e+00
     vertex  0.000000e+00  0.000000e+00  4.500000e+00
   endloop
 endfacet
 facet normal  0.000000e+00  0.000000e+00 -1.000000e+00
   outer loop
     vertex -1.049784e+01  1.480621e+00  4.500000e+00
     vertex -9.820412e+00  1.690205e+00  4.500000e+00
     vertex  0.000000e+00  0.000000e+00  4.500000e+00
   endloop
 endfacet
 facet normal  0.000000e+00  0.000000e+00 -1.000000e+00
   outer loop
     vertex -1.400000e+01  0.000000e+00  4.500000e+00
     vertex -1.258442e+01  1.077301e+00  4.500000e+00
     vertex -1.188190e+01  1.173712e+00  4.500000e+00
   endloop
 endfacet
 facet normal  0.000000e+00  0.000000e+00 -1.000000e+00
   outer loop
     vertex -1.400000e+01  0.000000e+00  4.500000e+00
     vertex -1.188190e+01  1.173712e+00  4.500000e+00
     vertex -1.118568e+01  1.308285e+00  4.500000e+00
   endloop
 endfacet
 facet normal  0.000000e+00  0.000000e+00 -1.000000e+00
   outer loop
     vertex -1.400000e+01  0.000000e+00  4.500000e+00
     vertex -1.118568e+01  1.308285e+00  4.500000e+00
     vertex -1.049784e+01  1.480621e+00  4.500000e+00
   endloop
 endfacet
 facet normal  0.000000e+00  0.000000e+00 -1.000000e+00
   outer loop
     vertex -1.400000e+01  0.000000e+00  4.500000e+00
     vertex -1.049784e+01  1.480621e+00  4.500000e+00
     vertex  0.000000e+00  0.000000e+00  4.500000e+00
   endloop
 endfacet
 facet normal  0.000000e+00 -0.000000e+00 -1.000000e+00
   outer loop
     vertex -1.329116e+01  1.019340e+00  4.500000e+00
     vertex -1.258442e+01  1.077301e+00  4.500000e+00
     vertex -1.400000e+01  0.000000e+00  4.500000e+00
   endloop
 endfacet
 facet normal  0.000000e+00 -0.000000e+00 -1.000000e+00
   outer loop
     vertex -1.400000e+01  1.000000e+00  4.500000e+00
     vertex -1.329116e+01  1.019340e+00  4.500000e+00
     vertex -1.400000e+01  0.000000e+00  4.500000e+00
   endloop
 endfacet
 facet normal -1.000000e+00 -0.000000e+00  0.000000e+00
   outer loop
     vertex  0.000000e+00  0.000000e+00  1.000000e+00
     vertex  0.000000e+00 -5.000000e-01  5.010000e-01
     vertex  0.000000e+00 -1.000000e-03  1.000000e+00
   endloop
 endfacet
 facet normal -1.000000e+00  0.000000e+00  0.000000e+00
   outer loop
     vertex  0.000000e+00  0.000000e+00  0.000000e+00
     vertex  0.000000e+00 -5.000000e-01  0.000000e+00
     vertex  0.000000e+00 -5.000000e-01  5.010000e-01
   endloop
 endfacet
 facet normal -1.000000e+00  0.000000e+00  0.000000e+00
   outer loop
     vertex  0.000000e+00  0.000000e+00  0.000000e+00
     vertex  0.000000e+00 -5.000000e-01  5.010000e-01
     vertex  0.000000e+00  0.000000e+00  1.000000e+00
   endloop
 endfacet
 facet normal -1.000000e+00  0.000000e+00  0.000000e+00
   outer loop
     vertex  0.000000e+00  8.000000e+00  1.000000e+00
     vertex  0.000000e+00  0.000000e+00  1.000000e+00
     vertex  0.000000e+00  0.000000e+00  4.500000e+00
   endloop
 endfacet
 facet normal -1.000000e+00  0.000000e+00  0.000000e+00
   outer loop
     vertex  0.000000e+00  8.000000e+00  1.000000e+00
     vertex  0.000000e+00  0.000000e+00  4.500000e+00
     vertex  0.000000e+00  8.000000e+00  4.500000e+00
   endloop
 endfacet
 facet normal -1.000000e+00  0.000000e+00  0.000000e+00
   outer loop
     vertex  0.000000e+00  8.500000e+00  5.010000e-01
     vertex  0.000000e+00  8.000000e+00  1.000000e+00
     vertex  0.000000e+00  8.001000e+00  1.000000e+00
   endloop
 endfacet
 facet normal -1.000000e+00  0.000000e+00  0.000000e+00
   outer loop
     vertex  0.000000e+00  8.000000e+00  0.000000e+00
     vertex  0.000000e+00  0.000000e+00  1.000000e+00
     vertex  0.000000e+00  8.000000e+00  1.000000e+00
   endloop
 endfacet
 facet normal -1.000000e+00  0.000000e+00  0.000000e+00
   outer loop
     vertex  0.000000e+00  8.000000e+00  0.000000e+00
     vertex  0.000000e+00  0.000000e+00  0.000000e+00
     vertex  0.000000e+00  0.000000e+00  1.000000e+00
   endloop
 endfacet
 facet normal -1.000000e+00  0.000000e+00  0.000000e+00
   outer loop
     vertex  0.000000e+00  8.000000e+00  0.000000e+00
     vertex  0.000000e+00  8.000000e+00  1.000000e+00
     vertex  0.000000e+00  8.500000e+00  5.010000e-01
   endloop
 endfacet
 facet normal -1.000000e+00  0.000000e+00  0.000000e+00
   outer loop
     vertex  0.000000e+00  8.500000e+00  0.000000e+00
     vertex  0.000000e+00  8.000000e+00  0.000000e+00
     vertex  0.000000e+00  8.500000e+00  5.010000e-01
   endloop
 endfacet
 facet normal -1.000000e+00  0.000000e+00  0.000000e+00
   outer loop
     vertex  0.000000e+00  8.000000e+00 -3.000000e+00
     vertex  0.000000e+00  0.000000e+00 -3.000000e+00
     vertex  0.000000e+00  0.000000e+00  0.000000e+00
   endloop
 endfacet
 facet normal -1.000000e+00  0.000000e+00  0.000000e+00
   outer loop
     vertex  0.000000e+00  8.000000e+00 -3.000000e+00
     vertex  0.000000e+00  0.000000e+00  0.000000e+00
     vertex  0.000000e+00  8.000000e+00  0.000000e+00
   endloop
 endfacet
 facet normal -0.000000e+00  8.881784e-13  1.000000e+00
   outer loop
     vertex  0.000000e+00  8.001000e+00  1.000000e+00
     vertex  5.000000e+00  8.000000e+00  1.000000e+00
     vertex  5.000000e+00  8.001000e+00  1.000000e+00
   endloop
 endfacet
 facet normal  0.000000e+00  8.881784e-13  1.000000e+00
   outer loop
     vertex  0.000000e+00  8.001000e+00  1.000000e+00
     vertex  0.000000e+00  8.000000e+00  1.000000e+00
     vertex  5.000000e+00  8.000000e+00  1.000000e+00
   endloop
 endfacet
 facet normal  1.000000e+00  0.000000e+00  0.000000e+00
   outer loop
     vertex  5.000000e+00  8.000000e+00  1.000000e+00
     vertex  5.000000e+00  8.500000e+00  5.010000e-01
     vertex  5.000000e+00  8.001000e+00  1.000000e+00
   endloop
 endfacet
 facet normal  1.000000e+00  0.000000e+00  0.000000e+00
   outer loop
     vertex  5.000000e+00  8.000000e+00  0.000000e+00
     vertex  5.000000e+00  8.500000e+00  0.000000e+00
     vertex  5.000000e+00  8.500000e+00  5.010000e-01
   endloop
 endfacet
 facet normal  1.000000e+00  0.000000e+00  0.000000e+00
   outer loop
     vertex  5.000000e+00  8.000000e+00  0.000000e+00
     vertex  5.000000e+00  8.500000e+00  5.010000e-01
     vertex  5.000000e+00  8.000000e+00  1.000000e+00
   endloop
 endfacet
 facet normal  1.000000e+00  0.000000e+00  0.000000e+00
   outer loop
     vertex  5.000000e+00  0.000000e+00  1.000000e+00
     vertex  5.000000e+00  8.000000e+00  1.000000e+00
     vertex  5.000000e+00  8.000000e+00  6.500000e+00
   endloop
 endfacet
 facet normal  1.000000e+00  0.000000e+00  0.000000e+00
   outer loop
     vertex  5.000000e+00  0.000000e+00  1.000000e+00
     vertex  5.000000e+00  8.000000e+00  6.500000e+00
     vertex  5.000000e+00  0.000000e+00  6.500000e+00
   endloop
 endfacet
 facet normal  1.000000e+00  0.000000e+00  0.000000e+00
   outer loop
     vertex  5.000000e+00 -5.000000e-01  5.010000e-01
     vertex  5.000000e+00  0.000000e+00  1.000000e+00
     vertex  5.000000e+00 -1.000000e-03  1.000000e+00
   endloop
 endfacet
 facet normal  1.000000e+00  0.000000e+00  0.000000e+00
   outer loop
     vertex  5.000000e+00  0.000000e+00  0.000000e+00
     vertex  5.000000e+00  8.000000e+00  0.000000e+00
     vertex  5.000000e+00  8.000000e+00  1.000000e+00
   endloop
 endfacet
 facet normal  1.000000e+00  0.000000e+00  0.000000e+00
   outer loop
     vertex  5.000000e+00  0.000000e+00  0.000000e+00
     vertex  5.000000e+00  8.000000e+00  1.000000e+00
     vertex  5.000000e+00  0.000000e+00  1.000000e+00
   endloop
 endfacet
 facet normal  1.000000e+00  0.000000e+00 -0.000000e+00
   outer loop
     vertex  5.000000e+00  0.000000e+00  0.000000e+00
     vertex  5.000000e+00  0.000000e+00  1.000000e+00
     vertex  5.000000e+00 -5.000000e-01  5.010000e-01
   endloop
 endfacet
 facet normal  1.000000e+00  0.000000e+00  0.000000e+00
   outer loop
     vertex  5.000000e+00 -5.000000e-01  0.000000e+00
     vertex  5.000000e+00  0.000000e+00  0.000000e+00
     vertex  5.000000e+00 -5.000000e-01  5.010000e-01
   endloop
 endfacet
 facet normal  1.000000e+00  0.000000e+00  0.000000e+00
   outer loop
     vertex  5.000000e+00  0.000000e+00 -3.000000e+00
     vertex  5.000000e+00  8.000000e+00 -3.000000e+00
     vertex  5.000000e+00  8.000000e+00  0.000000e+00
   endloop
 endfacet
 facet normal  1.000000e+00  0.000000e+00  0.000000e+00
   outer loop
     vertex  5.000000e+00  0.000000e+00 -3.000000e+00
     vertex  5.000000e+00  8.000000e+00  0.000000e+00
     vertex  5.000000e+00  0.000000e+00  0.000000e+00
   endloop
 endfacet
 facet normal  0.000000e+00  0.000000e+00  1.000000e+00
   outer loop
     vertex -4.510188e+00  5.114986e+00  6.500000e+00
     vertex -5.008773e+00  4.610759e+00  6.500000e+00
     vertex  5.000000e+00  0.000000e+00  6.500000e+00
   endloop
 endfacet
 facet normal -0.000000e+00  0.000000e+00  1.000000e+00
   outer loop
     vertex -5.534110e+00  4.134469e+00  6.500000e+00
     vertex  5.000000e+00  0.000000e+00  6.500000e+00
     vertex -5.008773e+00  4.610759e+00  6.500000e+00
   endloop
 endfacet
 facet normal  0.000000e+00  0.000000e+00  1.000000e+00
   outer loop
     vertex -4.039839e+00  5.645649e+00  6.500000e+00
     vertex -4.510188e+00  5.114986e+00  6.500000e+00
     vertex  5.000000e+00  0.000000e+00  6.500000e+00
   endloop
 endfacet
 facet normal -0.000000e+00  0.000000e+00  1.000000e+00
   outer loop
     vertex -6.084635e+00  3.687532e+00  6.500000e+00
     vertex  5.000000e+00  0.000000e+00  6.500000e+00
     vertex -5.534110e+00  4.134469e+00  6.500000e+00
   endloop
 endfacet
 facet normal  0.000000e+00  0.000000e+00  1.000000e+00
   outer loop
     vertex -3.599124e+00  6.201168e+00  6.500000e+00
     vertex -4.039839e+00  5.645649e+00  6.500000e+00
     vertex  5.000000e+00  0.000000e+00  6.500000e+00
   endloop
 endfacet
 facet normal -0.000000e+00  0.000000e+00  1.000000e+00
   outer loop
     vertex -6.658712e+00  3.271277e+00  6.500000e+00
     vertex  5.000000e+00  0.000000e+00  6.500000e+00
     vertex -6.084635e+00  3.687532e+00  6.500000e+00
   endloop
 endfacet
 facet normal -0.000000e+00  0.000000e+00  1.000000e+00
   outer loop
     vertex -3.189355e+00  6.779892e+00  6.500000e+00
     vertex  5.000000e+00  0.000000e+00  6.500000e+00
     vertex  5.000000e+00  8.000000e+00  6.500000e+00
   endloop
 endfacet
 facet normal  0.000000e+00  0.000000e+00  1.000000e+00
   outer loop
     vertex -3.189355e+00  6.779892e+00  6.500000e+00
     vertex -3.599124e+00  6.201168e+00  6.500000e+00
     vertex  5.000000e+00  0.000000e+00  6.500000e+00
   endloop
 endfacet
 facet normal -0.000000e+00  0.000000e+00  1.000000e+00
   outer loop
     vertex -7.254631e+00  2.886945e+00  6.500000e+00
     vertex  5.000000e+00  0.000000e+00  6.500000e+00
     vertex -6.658712e+00  3.271277e+00  6.500000e+00
   endloop
 endfacet
 facet normal -0.000000e+00  0.000000e+00  1.000000e+00
   outer loop
     vertex -2.811752e+00  7.380098e+00  6.500000e+00
     vertex -3.189355e+00  6.779892e+00  6.500000e+00
     vertex  5.000000e+00  8.000000e+00  6.500000e+00
   endloop
 endfacet
 facet normal -0.000000e+00  0.000000e+00  1.000000e+00
   outer loop
     vertex -7.870620e+00  2.535677e+00  6.500000e+00
     vertex  5.000000e+00  0.000000e+00  6.500000e+00
     vertex -7.254631e+00  2.886945e+00  6.500000e+00
   endloop
 endfacet
 facet normal -0.000000e+00  0.000000e+00  1.000000e+00
   outer loop
     vertex -2.467437e+00  8.000000e+00  6.500000e+00
     vertex -2.811752e+00  7.380098e+00  6.500000e+00
     vertex  5.000000e+00  8.000000e+00  6.500000e+00
   endloop
 endfacet
 facet normal -0.000000e+00  0.000000e+00  1.000000e+00
   outer loop
     vertex -8.504846e+00  2.218519e+00  6.500000e+00
     vertex  5.000000e+00  0.000000e+00  6.500000e+00
     vertex -7.870620e+00  2.535677e+00  6.500000e+00
   endloop
 endfacet
 facet normal -0.000000e+00  0.000000e+00  1.000000e+00
   outer loop
     vertex -9.155422e+00  1.936416e+00  6.500000e+00
     vertex  5.000000e+00  0.000000e+00  6.500000e+00
     vertex -8.504846e+00  2.218519e+00  6.500000e+00
   endloop
 endfacet
 facet normal -0.000000e+00  0.000000e+00  1.000000e+00
   outer loop
     vertex -9.820412e+00  1.690205e+00  6.500000e+00
     vertex  5.000000e+00  0.000000e+00  6.500000e+00
     vertex -9.155422e+00  1.936416e+00  6.500000e+00
   endloop
 endfacet
 facet normal -0.000000e+00  0.000000e+00  1.000000e+00
   outer loop
     vertex -1.049784e+01  1.480621e+00  6.500000e+00
     vertex  5.000000e+00  0.000000e+00  6.500000e+00
     vertex -9.820412e+00  1.690205e+00  6.500000e+00
   endloop
 endfacet
 facet normal  0.000000e+00  0.000000e+00  1.000000e+00
   outer loop
     vertex -1.400000e+01  0.000000e+00  6.500000e+00
     vertex -1.188190e+01  1.173712e+00  6.500000e+00
     vertex -1.258442e+01  1.077301e+00  6.500000e+00
   endloop
 endfacet
 facet normal  0.000000e+00  0.000000e+00  1.000000e+00
   outer loop
     vertex -1.400000e+01  0.000000e+00  6.500000e+00
     vertex -1.118568e+01  1.308285e+00  6.500000e+00
     vertex -1.188190e+01  1.173712e+00  6.500000e+00
   endloop
 endfacet
 facet normal  0.000000e+00  0.000000e+00  1.000000e+00
   outer loop
     vertex -1.400000e+01  0.000000e+00  6.500000e+00
     vertex -1.049784e+01  1.480621e+00  6.500000e+00
     vertex -1.118568e+01  1.308285e+00  6.500000e+00
   endloop
 endfacet
 facet normal  0.000000e+00  0.000000e+00  1.000000e+00
   outer loop
     vertex -1.400000e+01  0.000000e+00  6.500000e+00
     vertex  5.000000e+00  0.000000e+00  6.500000e+00
     vertex -1.049784e+01  1.480621e+00  6.500000e+00
   endloop
 endfacet
 facet normal -0.000000e+00  0.000000e+00  1.000000e+00
   outer loop
     vertex -1.329116e+01  1.019340e+00  6.500000e+00
     vertex -1.400000e+01  0.000000e+00  6.500000e+00
     vertex -1.258442e+01  1.077301e+00  6.500000e+00
   endloop
 endfacet
 facet normal -0.000000e+00  0.000000e+00  1.000000e+00
   outer loop
     vertex -1.400000e+01  1.000000e+00  6.500000e+00
     vertex -1.400000e+01  0.000000e+00  6.500000e+00
     vertex -1.329116e+01  1.019340e+00  6.500000e+00
   endloop
 endfacet
 facet normal -2.727331e-02  9.996280e-01  0.000000e+00
   outer loop
     vertex -1.329116e+01  1.019340e+00  6.500000e+00
     vertex -1.400000e+01  1.000000e+00  4.500000e+00
     vertex -1.400000e+01  1.000000e+00  6.500000e+00
   endloop
 endfacet
 facet normal -2.727331e-02  9.996280e-01  0.000000e+00
   outer loop
     vertex -1.329116e+01  1.019340e+00  6.500000e+00
     vertex -1.329116e+01  1.019340e+00  4.500000e+00
     vertex -1.400000e+01  1.000000e+00  4.500000e+00
   endloop
 endfacet
 facet normal -8.173878e-02  9.966538e-01  0.000000e+00
   outer loop
     vertex -1.258442e+01  1.077301e+00  6.500000e+00
     vertex -1.258442e+01  1.077301e+00  4.500000e+00
     vertex -1.329116e+01  1.019340e+00  4.500000e+00
   endloop
 endfacet
 facet normal -8.173878e-02  9.966538e-01  0.000000e+00
   outer loop
     vertex -1.258442e+01  1.077301e+00  6.500000e+00
     vertex -1.329116e+01  1.019340e+00  4.500000e+00
     vertex -1.329116e+01  1.019340e+00  6.500000e+00
   endloop
 endfacet
 facet normal -1.359611e-01  9.907142e-01  0.000000e+00
   outer loop
     vertex -1.188190e+01  1.173712e+00  6.500000e+00
     vertex -1.188190e+01  1.173712e+00  4.500000e+00
     vertex -1.258442e+01  1.077301e+00  4.500000e+00
   endloop
 endfacet
 facet normal -1.359611e-01  9.907142e-01  0.000000e+00
   outer loop
     vertex -1.188190e+01  1.173712e+00  6.500000e+00
     vertex -1.258442e+01  1.077301e+00  4.500000e+00
     vertex -1.258442e+01  1.077301e+00  6.500000e+00
   endloop
 endfacet
 facet normal -1.897788e-01  9.818269e-01  0.000000e+00
   outer loop
     vertex -1.118568e+01  1.308285e+00  6.500000e+00
     vertex -1.118568e+01  1.308285e+00  4.500000e+00
     vertex -1.188190e+01  1.173712e+00  4.500000e+00
   endloop
 endfacet
 facet normal -1.897788e-01  9.818269e-01  0.000000e+00
   outer loop
     vertex -1.118568e+01  1.308285e+00  6.500000e+00
     vertex -1.188190e+01  1.173712e+00  4.500000e+00
     vertex -1.188190e+01  1.173712e+00  6.500000e+00
   endloop
 endfacet
 facet normal -2.430319e-01  9.700183e-01  0.000000e+00
   outer loop
     vertex -1.049784e+01  1.480621e+00  6.500000e+00
     vertex -1.049784e+01  1.480621e+00  4.500000e+00
     vertex -1.118568e+01  1.308285e+00  4.500000e+00
   endloop
 endfacet
 facet normal -2.430319e-01  9.700183e-01  0.000000e+00
   outer loop
     vertex -1.049784e+01  1.480621e+00  6.500000e+00
     vertex -1.118568e+01  1.308285e+00  4.500000e+00
     vertex -1.118568e+01  1.308285e+00  6.500000e+00
   endloop
 endfacet
 facet normal -2.955619e-01  9.553236e-01  0.000000e+00
   outer loop
     vertex -9.820412e+00  1.690205e+00  6.500000e+00
     vertex -9.820412e+00  1.690205e+00  4.500000e+00
     vertex -1.049784e+01  1.480621e+00  4.500000e+00
   endloop
 endfacet
 facet normal -2.955619e-01  9.553236e-01  0.000000e+00
   outer loop
     vertex -9.820412e+00  1.690205e+00  6.500000e+00
     vertex -1.049784e+01  1.480621e+00  4.500000e+00
     vertex -1.049784e+01  1.480621e+00  6.500000e+00
   endloop
 endfacet
 facet normal -3.472125e-01  9.377865e-01  0.000000e+00
   outer loop
     vertex -9.155422e+00  1.936416e+00  6.500000e+00
     vertex -9.155422e+00  1.936416e+00  4.500000e+00
     vertex -9.820412e+00  1.690205e+00  4.500000e+00
   endloop
 endfacet
 facet normal -3.472125e-01  9.377865e-01  0.000000e+00
   outer loop
     vertex -9.155422e+00  1.936416e+00  6.500000e+00
     vertex -9.820412e+00  1.690205e+00  4.500000e+00
     vertex -9.820412e+00  1.690205e+00  6.500000e+00
   endloop
 endfacet
 facet normal -3.978300e-01  9.174592e-01  0.000000e+00
   outer loop
     vertex -8.504846e+00  2.218519e+00  6.500000e+00
     vertex -8.504846e+00  2.218519e+00  4.500000e+00
     vertex -9.155422e+00  1.936416e+00  4.500000e+00
   endloop
 endfacet
 facet normal -3.978300e-01  9.174592e-01  0.000000e+00
   outer loop
     vertex -8.504846e+00  2.218519e+00  6.500000e+00
     vertex -9.155422e+00  1.936416e+00  4.500000e+00
     vertex -9.155422e+00  1.936416e+00  6.500000e+00
   endloop
 endfacet
 facet normal -4.472638e-01  8.944021e-01  0.000000e+00
   outer loop
     vertex -7.870620e+00  2.535677e+00  6.500000e+00
     vertex -7.870620e+00  2.535677e+00  4.500000e+00
     vertex -8.504846e+00  2.218519e+00  4.500000e+00
   endloop
 endfacet
 facet normal -4.472638e-01  8.944021e-01  0.000000e+00
   outer loop
     vertex -7.870620e+00  2.535677e+00  6.500000e+00
     vertex -8.504846e+00  2.218519e+00  4.500000e+00
     vertex -8.504846e+00  2.218519e+00  6.500000e+00
   endloop
 endfacet
 facet normal -4.953669e-01  8.686838e-01  0.000000e+00
   outer loop
     vertex -7.254631e+00  2.886945e+00  6.500000e+00
     vertex -7.254631e+00  2.886945e+00  4.500000e+00
     vertex -7.870620e+00  2.535677e+00  4.500000e+00
   endloop
 endfacet
 facet normal -5.419961e-01  8.403810e-01  0.000000e+00
   outer loop
     vertex -7.254631e+00  2.886945e+00  6.500000e+00
     vertex -6.658712e+00  3.271277e+00  4.500000e+00
     vertex -7.254631e+00  2.886945e+00  4.500000e+00
   endloop
 endfacet
 facet normal -4.953669e-01  8.686838e-01  0.000000e+00
   outer loop
     vertex -7.254631e+00  2.886945e+00  6.500000e+00
     vertex -7.870620e+00  2.535677e+00  4.500000e+00
     vertex -7.870620e+00  2.535677e+00  6.500000e+00
   endloop
 endfacet
 facet normal -5.419961e-01  8.403810e-01  0.000000e+00
   outer loop
     vertex -6.658712e+00  3.271277e+00  6.500000e+00
     vertex -6.658712e+00  3.271277e+00  4.500000e+00
     vertex -7.254631e+00  2.886945e+00  6.500000e+00
   endloop
 endfacet
 facet normal -5.870127e-01  8.095777e-01  0.000000e+00
   outer loop
     vertex -6.084635e+00  3.687532e+00  6.500000e+00
     vertex -6.084635e+00  3.687532e+00  4.500000e+00
     vertex -6.658712e+00  3.271277e+00  4.500000e+00
   endloop
 endfacet
 facet normal -5.870127e-01  8.095777e-01  0.000000e+00
   outer loop
     vertex -6.084635e+00  3.687532e+00  6.500000e+00
     vertex -6.658712e+00  3.271277e+00  4.500000e+00
     vertex -6.658712e+00  3.271277e+00  6.500000e+00
   endloop
 endfacet
 facet normal -6.302827e-01  7.763657e-01  0.000000e+00
   outer loop
     vertex -5.534110e+00  4.134469e+00  6.500000e+00
     vertex -5.534110e+00  4.134469e+00  4.500000e+00
     vertex -6.084635e+00  3.687532e+00  4.500000e+00
   endloop
 endfacet
 facet normal -6.302827e-01  7.763657e-01  0.000000e+00
   outer loop
     vertex -5.534110e+00  4.134469e+00  6.500000e+00
     vertex -6.084635e+00  3.687532e+00  4.500000e+00
     vertex -6.084635e+00  3.687532e+00  6.500000e+00
   endloop
 endfacet
 facet normal -6.716774e-01  7.408437e-01  0.000000e+00
   outer loop
     vertex -5.008773e+00  4.610759e+00  6.500000e+00
     vertex -5.534110e+00  4.134469e+00  4.500000e+00
     vertex -5.534110e+00  4.134469e+00  6.500000e+00
   endloop
 endfacet
 facet normal -6.716774e-01  7.408437e-01  0.000000e+00
   outer loop
     vertex -5.008773e+00  4.610759e+00  6.500000e+00
     vertex -5.008773e+00  4.610759e+00  4.500000e+00
     vertex -5.534110e+00  4.134469e+00  4.500000e+00
   endloop
 endfacet
 facet normal -7.110737e-01  7.031175e-01  0.000000e+00
   outer loop
     vertex -4.510188e+00  5.114986e+00  6.500000e+00
     vertex -5.008773e+00  4.610759e+00  4.500000e+00
     vertex -5.008773e+00  4.610759e+00  6.500000e+00
   endloop
 endfacet
 facet normal -7.110737e-01  7.031175e-01  0.000000e+00
   outer loop
     vertex -4.510188e+00  5.114986e+00  6.500000e+00
     vertex -4.510188e+00  5.114986e+00  4.500000e+00
     vertex -5.008773e+00  4.610759e+00  4.500000e+00
   endloop
 endfacet
 facet normal -7.483543e-01  6.632992e-01  0.000000e+00
   outer loop
     vertex -4.039839e+00  5.645649e+00  6.500000e+00
     vertex -4.510188e+00  5.114986e+00  4.500000e+00
     vertex -4.510188e+00  5.114986e+00  6.500000e+00
   endloop
 endfacet
 facet normal -7.483543e-01  6.632992e-01  0.000000e+00
   outer loop
     vertex -4.039839e+00  5.645649e+00  6.500000e+00
     vertex -4.039839e+00  5.645649e+00  4.500000e+00
     vertex -4.510188e+00  5.114986e+00  4.500000e+00
   endloop
 endfacet
 facet normal -7.834082e-01  6.215075e-01  0.000000e+00
   outer loop
     vertex -4.039839e+00  5.645649e+00  6.500000e+00
     vertex -3.599124e+00  6.201168e+00  4.500000e+00
     vertex -4.039839e+00  5.645649e+00  4.500000e+00
   endloop
 endfacet
 facet normal -7.834082e-01  6.215075e-01  0.000000e+00
   outer loop
     vertex -3.599124e+00  6.201168e+00  6.500000e+00
     vertex -3.599124e+00  6.201168e+00  4.500000e+00
     vertex -4.039839e+00  5.645649e+00  6.500000e+00
   endloop
 endfacet
 facet normal -8.161313e-01  5.778665e-01  0.000000e+00
   outer loop
     vertex -3.189355e+00  6.779892e+00  6.500000e+00
     vertex -3.599124e+00  6.201168e+00  4.500000e+00
     vertex -3.599124e+00  6.201168e+00  6.500000e+00
   endloop
 endfacet
 facet normal -8.161313e-01  5.778665e-01  0.000000e+00
   outer loop
     vertex -3.189355e+00  6.779892e+00  6.500000e+00
     vertex -3.189355e+00  6.779892e+00  4.500000e+00
     vertex -3.599124e+00  6.201168e+00  4.500000e+00
   endloop
 endfacet
 facet normal -8.464261e-01  5.325062e-01  0.000000e+00
   outer loop
     vertex -2.811752e+00  7.380098e+00  6.500000e+00
     vertex -3.189355e+00  6.779892e+00  4.500000e+00
     vertex -3.189355e+00  6.779892e+00  6.500000e+00
   endloop
 endfacet
 facet normal -8.464261e-01  5.325062e-01  0.000000e+00
   outer loop
     vertex -2.811752e+00  7.380098e+00  6.500000e+00
     vertex -2.811752e+00  7.380098e+00  4.500000e+00
     vertex -3.189355e+00  6.779892e+00  4.500000e+00
   endloop
 endfacet
 facet normal -8.742025e-01  4.855615e-01  0.000000e+00
   outer loop
     vertex -2.811752e+00  7.380098e+00  6.500000e+00
     vertex -2.467437e+00  8.000000e+00  4.500000e+00
     vertex -2.811752e+00  7.380098e+00  4.500000e+00
   endloop
 endfacet
 facet normal -8.742025e-01  4.855615e-01  0.000000e+00
   outer loop
     vertex -2.467437e+00  8.000000e+00  6.500000e+00
     vertex -2.467437e+00  8.000000e+00  4.500000e+00
     vertex -2.811752e+00  7.380098e+00  6.500000e+00
   endloop
 endfacet
 facet normal  0.000000e+00 -1.000000e+00  0.000000e+00
   outer loop
     vertex  0.000000e+00  0.000000e+00  4.500000e+00
     vertex  5.000000e+00  0.000000e+00  1.000000e+00
     vertex  5.000000e+00  0.000000e+00  6.500000e+00
   endloop
 endfacet
 facet normal  0.000000e+00 -1.000000e+00  0.000000e+00
   outer loop
     vertex  0.000000e+00  0.000000e+00  1.000000e+00
     vertex  5.000000e+00  0.000000e+00  1.000000e+00
     vertex  0.000000e+00  0.000000e+00  4.500000e+00
   endloop
 endfacet
 facet normal  0.000000e+00 -1.000000e+00  0.000000e+00
   outer loop
     vertex -1.400000e+01  0.000000e+00  6.500000e+00
     vertex  0.000000e+00  0.000000e+00  4.500000e+00
     vertex  5.000000e+00  0.000000e+00  6.500000e+00
   endloop
 endfacet
 facet normal  0.000000e+00 -1.000000e+00  0.000000e+00
   outer loop
     vertex -1.400000e+01  0.000000e+00  4.500000e+00
     vertex  0.000000e+00  0.000000e+00  4.500000e+00
     vertex -1.400000e+01  0.000000e+00  6.500000e+00
   endloop
 endfacet
 facet normal -1.000000e+00  1.776357e-13  0.000000e+00
   outer loop
     vertex -1.400000e+01  1.000000e+00  4.500000e+00
     vertex -1.400000e+01  0.000000e+00  4.500000e+00
     vertex -1.400000e+01  0.000000e+00  6.500000e+00
   endloop
 endfacet
 facet normal -1.000000e+00  1.776357e-13  0.000000e+00
   outer loop
     vertex -1.400000e+01  1.000000e+00  4.500000e+00
     vertex -1.400000e+01  0.000000e+00  6.500000e+00
     vertex -1.400000e+01  1.000000e+00  6.500000e+00
   endloop
 endfacet
 facet normal  0.000000e+00 -0.000000e+00 -1.000000e+00
   outer loop
     vertex  5.000000e+00  8.000000e+00 -3.000000e+00
     vertex  5.000000e+00  0.000000e+00 -3.000000e+00
     vertex  0.000000e+00  0.000000e+00 -3.000000e+00
   endloop
 endfacet
 facet normal  0.000000e+00  0.000000e+00 -1.000000e+00
   outer loop
     vertex  0.000000e+00  8.000000e+00 -3.000000e+00
     vertex  5.000000e+00  8.000000e+00 -3.000000e+00
     vertex  0.000000e+00  0.000000e+00 -3.000000e+00
   endloop
 endfacet
 facet normal  0.000000e+00  1.000000e+00  0.000000e+00
   outer loop
     vertex  5.000000e+00  8.000000e+00 -3.000000e+00
     vertex  0.000000e+00  8.000000e+00 -3.000000e+00
     vertex  0.000000e+00  8.000000e+00  0.000000e+00
   endloop
 endfacet
 facet normal  0.000000e+00  1.000000e+00 -0.000000e+00
   outer loop
     vertex  5.000000e+00  8.000000e+00 -3.000000e+00
     vertex  0.000000e+00  8.000000e+00  0.000000e+00
     vertex  5.000000e+00  8.000000e+00  0.000000e+00
   endloop
 endfacet
 facet normal  0.000000e+00  0.000000e+00 -1.000000e+00
   outer loop
     vertex  0.000000e+00  8.500000e+00  0.000000e+00
     vertex  5.000000e+00  8.500000e+00  0.000000e+00
     vertex  5.000000e+00  8.000000e+00  0.000000e+00
   endloop
 endfacet
 facet normal  0.000000e+00  0.000000e+00 -1.000000e+00
   outer loop
     vertex  0.000000e+00  8.500000e+00  0.000000e+00
     vertex  5.000000e+00  8.000000e+00  0.000000e+00
     vertex  0.000000e+00  8.000000e+00  0.000000e+00
   endloop
 endfacet
 facet normal  0.000000e+00  1.000000e+00  0.000000e+00
   outer loop
     vertex  5.000000e+00  8.500000e+00  0.000000e+00
     vertex  0.000000e+00  8.500000e+00  0.000000e+00
     vertex  0.000000e+00  8.500000e+00  5.010000e-01
   endloop
 endfacet
 facet normal  0.000000e+00  1.000000e+00 -0.000000e+00
   outer loop
     vertex  5.000000e+00  8.500000e+00  0.000000e+00
     vertex  0.000000e+00  8.500000e+00  5.010000e-01
     vertex  5.000000e+00  8.500000e+00  5.010000e-01
   endloop
 endfacet
 facet normal  0.000000e+00  7.071068e-01  7.071068e-01
   outer loop
     vertex  5.000000e+00  8.001000e+00  1.000000e+00
     vertex  0.000000e+00  8.500000e+00  5.010000e-01
     vertex  0.000000e+00  8.001000e+00  1.000000e+00
   endloop
 endfacet
 facet normal  0.000000e+00  7.071068e-01  7.071068e-01
   outer loop
     vertex  5.000000e+00  8.001000e+00  1.000000e+00
     vertex  5.000000e+00  8.500000e+00  5.010000e-01
     vertex  0.000000e+00  8.500000e+00  5.010000e-01
   endloop
 endfacet
 facet normal -0.000000e+00  0.000000e+00  1.000000e+00
   outer loop
     vertex  0.000000e+00  0.000000e+00  1.000000e+00
     vertex  5.000000e+00 -1.000000e-03  1.000000e+00
     vertex  5.000000e+00  0.000000e+00  1.000000e+00
   endloop
 endfacet
 facet normal  0.000000e+00  0.000000e+00  1.000000e+00
   outer loop
     vertex  0.000000e+00  0.000000e+00  1.000000e+00
     vertex  0.000000e+00 -1.000000e-03  1.000000e+00
     vertex  5.000000e+00 -1.000000e-03  1.000000e+00
   endloop
 endfacet
 facet normal  0.000000e+00 -7.071068e-01  7.071068e-01
   outer loop
     vertex  0.000000e+00 -1.000000e-03  1.000000e+00
     vertex  5.000000e+00 -5.000000e-01  5.010000e-01
     vertex  5.000000e+00 -1.000000e-03  1.000000e+00
   endloop
 endfacet
 facet normal  0.000000e+00 -7.071068e-01  7.071068e-01
   outer loop
     vertex  0.000000e+00 -1.000000e-03  1.000000e+00
     vertex  0.000000e+00 -5.000000e-01  5.010000e-01
     vertex  5.000000e+00 -5.000000e-01  5.010000e-01
   endloop
 endfacet
 facet normal  0.000000e+00 -1.000000e+00  0.000000e+00
   outer loop
     vertex  0.000000e+00 -5.000000e-01  0.000000e+00
     vertex  5.000000e+00 -5.000000e-01  0.000000e+00
     vertex  5.000000e+00 -5.000000e-01  5.010000e-01
   endloop
 endfacet
 facet normal  0.000000e+00 -1.000000e+00  0.000000e+00
   outer loop
     vertex  0.000000e+00 -5.000000e-01  0.000000e+00
     vertex  5.000000e+00 -5.000000e-01  5.010000e-01
     vertex  0.000000e+00 -5.000000e-01  5.010000e-01
   endloop
 endfacet
 facet normal  0.000000e+00  0.000000e+00 -1.000000e+00
   outer loop
     vertex  0.000000e+00  0.000000e+00  0.000000e+00
     vertex  5.000000e+00  0.000000e+00  0.000000e+00
     vertex  5.000000e+00 -5.000000e-01  0.000000e+00
   endloop
 endfacet
 facet normal  0.000000e+00  0.000000e+00 -1.000000e+00
   outer loop
     vertex  0.000000e+00  0.000000e+00  0.000000e+00
     vertex  5.000000e+00 -5.000000e-01  0.000000e+00
     vertex  0.000000e+00 -5.000000e-01  0.000000e+00
   endloop
 endfacet
 facet normal  0.000000e+00 -1.000000e+00  0.000000e+00
   outer loop
     vertex  0.000000e+00  0.000000e+00 -3.000000e+00
     vertex  5.000000e+00  0.000000e+00 -3.000000e+00
     vertex  5.000000e+00  0.000000e+00  0.000000e+00
   endloop
 endfacet
 facet normal  0.000000e+00 -1.000000e+00  0.000000e+00
   outer loop
     vertex  0.000000e+00  0.000000e+00 -3.000000e+00
     vertex  5.000000e+00  0.000000e+00  0.000000e+00
     vertex  0.000000e+00  0.000000e+00  0.000000e+00
   endloop
 endfacet
endsolid
